# xmcd
#
# Track frame offsets:
#	150
#	15334
#	34122
#	48720
#	63687
#	78460
#	91505
#	105840
#	116820
#	129477
#	143177
#	157909
#	172950
#	185717
#	198190
#	210612
#	226397
#	235832
#
# Disc length: 3326 seconds
#
# Revision: 0
# Processed by: cddbd v1.5.2PL0 Copyright (c) Steve Scherf et al.
# Submitted via: EasyCDDAExtractor 2011.0.0.0
#
DISCID=e70cfc12
DTITLE=이미자 - 이미자 전집(박춘석음악기획)
DYEAR=1991
DGENRE=Ballad
TTITLE0=동백아가씨
TTITLE1=임이라 부르리까
TTITLE2=평양기생
TTITLE3=빙점
TTITLE4=옥이엄마
TTITLE5=춘천댁 사공
TTITLE6=홍콩의 왼손잡이
TTITLE7=여로
TTITLE8=임금님의 첫사랑
TTITLE9=첫눈내린 거리
TTITLE10=밤의 정거장
TTITLE11=벽오동 심은뜻은
TTITLE12=압록강 칠백리
TTITLE13=서귀포 바닷가
TTITLE14=목화아가씨
TTITLE15=동백꽃 피는 항구
TTITLE16=연포아가씨
TTITLE17=강촌에 살고싶네
EXTD=
EXTT0=
EXTT1=
EXTT2=
EXTT3=
EXTT4=
EXTT5=
EXTT6=
EXTT7=
EXTT8=
EXTT9=
EXTT10=
EXTT11=
EXTT12=
EXTT13=
EXTT14=
EXTT15=
EXTT16=
EXTT17=
PLAYORDER=
